<svg width="568" height="541" viewBox="0 0 568 541" fill="none" xmlns="http://www.w3.org/2000/svg">
<g filter="url(#filter0_f_18_189)">
<line x1="85.4587" y1="344.559" x2="500.459" y2="252.559" stroke="white" stroke-width="5"/>
</g>
<g filter="url(#filter1_f_18_189)">
<path d="M499 252L147.145 178" stroke="white" stroke-width="5" stroke-linecap="square"/>
</g>
<g filter="url(#filter2_f_18_189)">
<line x1="208.153" y1="385.586" x2="450.046" y2="120.316" stroke="white" stroke-width="5"/>
</g>
<g filter="url(#filter3_f_18_189)">
<line x1="450.309" y1="119.13" x2="84.3093" y2="344.13" stroke="white" stroke-width="5"/>
</g>
<path d="M304.285 355V348.6H317.149C319.411 348.6 321.16 347.896 322.397 346.488C323.635 345.08 324.253 343.459 324.253 341.624C324.253 340.387 323.976 339.235 323.421 338.168C322.867 337.101 322.056 336.248 320.989 335.608C319.923 334.968 318.643 334.648 317.149 334.648H304.285V328.248H316.061C317.981 328.248 319.517 327.757 320.669 326.776C321.821 325.795 322.397 324.344 322.397 322.424C322.397 320.504 321.821 319.053 320.669 318.072C319.517 317.091 317.981 316.6 316.061 316.6H304.285V310.2H316.253C319.283 310.2 321.8 310.755 323.805 311.864C325.811 312.973 327.304 314.403 328.285 316.152C329.267 317.901 329.757 319.779 329.757 321.784C329.757 324.131 329.096 326.2 327.773 327.992C326.493 329.784 324.595 331.235 322.077 332.344L322.653 330.04C325.469 331.192 327.667 332.813 329.245 334.904C330.824 336.995 331.613 339.448 331.613 342.264C331.613 344.568 331.037 346.68 329.885 348.6C328.776 350.52 327.112 352.077 324.893 353.272C322.717 354.424 320.029 355 316.829 355H304.285ZM299.229 355V310.2H306.589V355H299.229ZM340.578 311.364H349.305V320.091H340.578V311.364ZM349.305 311.364H358.032V320.091H349.305V311.364ZM349.305 320.091H358.032V328.818H349.305V320.091ZM349.305 328.818H358.032V337.545H349.305V328.818ZM349.305 337.545H358.032V346.273H349.305V337.545ZM349.305 346.273H358.032V355H349.305V346.273ZM382.862 355V311.48H390.222V355H382.862ZM368.27 316.92V310.2H404.814V316.92H368.27ZM421.486 311.364H430.214V320.091H421.486V311.364ZM430.214 320.091H438.941V328.818H430.214V320.091ZM430.214 328.818H438.941V337.545H430.214V328.818ZM430.214 337.545H438.941V346.273H430.214V337.545ZM421.486 346.273H430.214V355H421.486V346.273ZM412.759 337.545H421.486V346.273H412.759V337.545ZM412.759 328.818H421.486V337.545H412.759V328.818ZM412.759 320.091H421.486V328.818H412.759V320.091ZM412.759 311.364H421.486V320.091H412.759V311.364ZM430.214 311.364H438.941V320.091H430.214V311.364ZM430.214 346.273H438.941V355H430.214V346.273ZM412.759 346.273H421.486V355H412.759V346.273Z" fill="white"/>
<path d="M117.906 248.64C114.407 248.64 111.421 248 108.946 246.72C106.471 245.44 104.274 243.584 102.354 241.152L106.45 237.056C107.858 239.019 109.479 240.512 111.314 241.536C113.149 242.517 115.41 243.008 118.098 243.008C120.743 243.008 122.855 242.432 124.434 241.28C126.055 240.128 126.866 238.549 126.866 236.544C126.866 234.88 126.482 233.536 125.714 232.512C124.946 231.488 123.901 230.656 122.578 230.016C121.298 229.333 119.89 228.736 118.354 228.224C116.818 227.669 115.282 227.093 113.746 226.496C112.21 225.856 110.802 225.088 109.522 224.192C108.242 223.253 107.197 222.037 106.386 220.544C105.618 219.051 105.234 217.173 105.234 214.912C105.234 212.395 105.831 210.261 107.026 208.512C108.263 206.72 109.927 205.355 112.018 204.416C114.151 203.435 116.541 202.944 119.186 202.944C122.087 202.944 124.69 203.52 126.994 204.672C129.298 205.781 131.175 207.253 132.626 209.088L128.53 213.184C127.207 211.648 125.778 210.496 124.242 209.728C122.749 208.96 121.021 208.576 119.058 208.576C116.669 208.576 114.77 209.109 113.362 210.176C111.954 211.2 111.25 212.651 111.25 214.528C111.25 216.021 111.634 217.237 112.402 218.176C113.213 219.072 114.258 219.84 115.538 220.48C116.818 221.12 118.226 221.717 119.762 222.272C121.341 222.784 122.898 223.36 124.434 224C125.97 224.64 127.378 225.451 128.658 226.432C129.938 227.413 130.962 228.693 131.73 230.272C132.541 231.808 132.946 233.749 132.946 236.096C132.946 240.021 131.581 243.093 128.85 245.312C126.162 247.531 122.514 248.64 117.906 248.64ZM151.102 248V204.864H156.862V248H151.102ZM143.614 222.848V217.6H164.35V222.848H143.614ZM188.383 248.64C185.61 248.64 183.092 247.957 180.831 246.592C178.57 245.184 176.778 243.285 175.455 240.896C174.175 238.507 173.535 235.819 173.535 232.832C173.535 229.845 174.175 227.157 175.455 224.768C176.778 222.379 178.548 220.48 180.767 219.072C183.028 217.664 185.567 216.96 188.383 216.96C190.687 216.96 192.735 217.451 194.527 218.432C196.362 219.371 197.834 220.693 198.943 222.4C200.052 224.064 200.671 226.005 200.799 228.224V237.376C200.671 239.552 200.052 241.493 198.943 243.2C197.876 244.907 196.426 246.251 194.591 247.232C192.799 248.171 190.73 248.64 188.383 248.64ZM189.343 243.2C192.202 243.2 194.506 242.24 196.255 240.32C198.004 238.357 198.879 235.861 198.879 232.832C198.879 230.741 198.474 228.928 197.663 227.392C196.895 225.813 195.786 224.597 194.335 223.744C192.884 222.848 191.199 222.4 189.279 222.4C187.359 222.4 185.652 222.848 184.159 223.744C182.708 224.64 181.556 225.877 180.703 227.456C179.892 228.992 179.487 230.763 179.487 232.768C179.487 234.816 179.892 236.629 180.703 238.208C181.556 239.744 182.73 240.96 184.223 241.856C185.716 242.752 187.423 243.2 189.343 243.2ZM198.495 248V239.808L199.583 232.384L198.495 225.024V217.6H204.319V248H198.495ZM219.105 248V217.6H224.865V248H219.105ZM224.865 230.656L222.689 229.696C222.689 225.813 223.585 222.72 225.377 220.416C227.169 218.112 229.75 216.96 233.121 216.96C234.657 216.96 236.044 217.237 237.281 217.792C238.518 218.304 239.67 219.179 240.737 220.416L236.961 224.32C236.321 223.637 235.617 223.147 234.849 222.848C234.081 222.549 233.185 222.4 232.161 222.4C230.028 222.4 228.278 223.083 226.913 224.448C225.548 225.813 224.865 227.883 224.865 230.656Z" fill="white"/>
<g filter="url(#filter4_f_18_189)">
<path d="M166.572 437.355C199.292 458.466 237.006 470.373 275.814 471.845C314.623 473.317 353.116 464.299 387.313 445.725C421.511 427.152 450.171 399.696 470.33 366.198C490.489 332.699 501.414 294.374 501.977 255.187L496.737 255.11C496.188 293.356 485.525 330.759 465.851 363.453C446.177 396.146 418.205 422.941 384.83 441.069C351.454 459.196 313.886 467.996 276.011 466.56C238.136 465.124 201.328 453.503 169.395 432.899L166.572 437.355Z" fill="#8F57FF"/>
</g>
<g filter="url(#filter5_f_18_189)">
<path d="M83.1616 167.566C71.9144 194.036 65.9703 222.509 65.6689 251.359C65.3674 280.21 70.7145 308.874 81.4047 335.714L86.2731 333.775C75.8399 307.58 70.6214 279.606 70.9156 251.448C71.2098 223.291 77.011 195.502 87.9879 169.669L83.1616 167.566Z" fill="#8F57FF"/>
</g>
<defs>
<filter id="filter0_f_18_189" x="74.9177" y="240.118" width="436.082" height="116.882" filterUnits="userSpaceOnUse" color-interpolation-filters="sRGB">
<feFlood flood-opacity="0" result="BackgroundImageFix"/>
<feBlend mode="normal" in="SourceGraphic" in2="BackgroundImageFix" result="shape"/>
<feGaussianBlur stdDeviation="1" result="effect1_foregroundBlur_18_189"/>
</filter>
<filter id="filter1_f_18_189" x="134.184" y="165.039" width="377.777" height="99.922" filterUnits="userSpaceOnUse" color-interpolation-filters="sRGB">
<feFlood flood-opacity="0" result="BackgroundImageFix"/>
<feBlend mode="normal" in="SourceGraphic" in2="BackgroundImageFix" result="shape"/>
<feGaussianBlur stdDeviation="1" result="effect1_foregroundBlur_18_189"/>
</filter>
<filter id="filter2_f_18_189" x="196.305" y="108.631" width="265.589" height="288.639" filterUnits="userSpaceOnUse" color-interpolation-filters="sRGB">
<feFlood flood-opacity="0" result="BackgroundImageFix"/>
<feBlend mode="normal" in="SourceGraphic" in2="BackgroundImageFix" result="shape"/>
<feGaussianBlur stdDeviation="1" result="effect1_foregroundBlur_18_189"/>
</filter>
<filter id="filter3_f_18_189" x="73" y="107" width="388.619" height="249.259" filterUnits="userSpaceOnUse" color-interpolation-filters="sRGB">
<feFlood flood-opacity="0" result="BackgroundImageFix"/>
<feBlend mode="normal" in="SourceGraphic" in2="BackgroundImageFix" result="shape"/>
<feGaussianBlur stdDeviation="1" result="effect1_foregroundBlur_18_189"/>
</filter>
<filter id="filter4_f_18_189" x="156.572" y="245.11" width="355.405" height="236.89" filterUnits="userSpaceOnUse" color-interpolation-filters="sRGB">
<feFlood flood-opacity="0" result="BackgroundImageFix"/>
<feBlend mode="normal" in="SourceGraphic" in2="BackgroundImageFix" result="shape"/>
<feGaussianBlur stdDeviation="5" result="effect1_foregroundBlur_18_189"/>
</filter>
<filter id="filter5_f_18_189" x="55.6568" y="157.566" width="42.3311" height="188.148" filterUnits="userSpaceOnUse" color-interpolation-filters="sRGB">
<feFlood flood-opacity="0" result="BackgroundImageFix"/>
<feBlend mode="normal" in="SourceGraphic" in2="BackgroundImageFix" result="shape"/>
<feGaussianBlur stdDeviation="5" result="effect1_foregroundBlur_18_189"/>
</filter>
</defs>
</svg>
