<svg width="333" height="333" viewBox="0 0 333 333" fill="none" xmlns="http://www.w3.org/2000/svg">
<g opacity="0.15">
<line x1="1.0023" y1="166.1" x2="331.999" y2="167.625" stroke="white"/>
<line x1="167.049" y1="1.10083" x2="166.241" y2="332.101" stroke="white"/>
<line x1="0.646447" y1="166.246" x2="166.146" y2="0.746064" stroke="white"/>
<line x1="1.35355" y1="166.246" x2="166.854" y2="331.746" stroke="white"/>
<line x1="166.855" y1="0.747674" x2="332.355" y2="167.766" stroke="white"/>
<line x1="166.148" y1="331.744" x2="331.648" y2="167.763" stroke="white"/>
<line x1="83.3964" y1="248.996" x2="248.896" y2="83.4961" stroke="white"/>
<line x1="84.1036" y1="83.4961" x2="249.604" y2="248.996" stroke="white"/>
<line x1="248.893" y1="83.5" x2="283.055" y2="48.5779" stroke="white"/>
<line x1="83.3885" y1="83.4359" x2="50.744" y2="49.273" stroke="white"/>
<line x1="84.1036" y1="248.944" x2="49.9407" y2="283.107" stroke="white"/>
<line x1="249.6" y1="248.992" x2="283.762" y2="282.396" stroke="white"/>
<line x1="1.46127" y1="166.407" x2="50.0484" y2="282.56" stroke="white"/>
<line x1="49.7816" y1="282.293" x2="166.694" y2="331.639" stroke="white"/>
<line x1="166.306" y1="331.639" x2="283.218" y2="282.293" stroke="white"/>
<line x1="331.701" y1="168.313" x2="283.873" y2="281.43" stroke="white"/>
<line x1="283.115" y1="48.7353" x2="332.462" y2="167.166" stroke="white"/>
<line x1="166.689" y1="0.636836" x2="283.602" y2="48.4648" stroke="white"/>
<line x1="50.9141" y1="48.4657" x2="166.309" y2="0.637736" stroke="white"/>
<line x1="0.539968" y1="166.404" x2="50.6455" y2="48.7317" stroke="white"/>
<line x1="84.25" y1="83.8496" x2="84.25" y2="248.59" stroke="white"/>
<line x1="83.7523" y1="83.3496" x2="249.252" y2="84.1194" stroke="white"/>
<line x1="83.7477" y1="248.85" x2="249.248" y2="248.09" stroke="white"/>
<line x1="249.75" y1="83.8496" x2="249.75" y2="248.59" stroke="white"/>
<line x1="83.3981" y1="166.244" x2="166.148" y2="84.2536" stroke="white"/>
<line x1="84.1003" y1="167.002" x2="166.85" y2="248.234" stroke="white"/>
<line x1="166.855" y1="83.4977" x2="249.605" y2="167.007" stroke="white"/>
<line x1="166.15" y1="248.234" x2="248.9" y2="167.002" stroke="white"/>
<line x1="124.745" y1="125.104" x2="207.495" y2="125.104" stroke="white"/>
<line x1="125.245" y1="125.604" x2="125.245" y2="207.595" stroke="white"/>
<line x1="124.745" y1="207.095" x2="207.495" y2="207.095" stroke="white"/>
<line x1="207.995" y1="125.604" x2="207.995" y2="207.595" stroke="white"/>
<line x1="124.395" y1="166.243" x2="166.15" y2="125.247" stroke="white"/>
<line x1="125.092" y1="166.999" x2="166.847" y2="207.235" stroke="white"/>
<line x1="166.854" y1="125.251" x2="208.608" y2="167.005" stroke="white"/>
<line x1="166.909" y1="207.238" x2="207.904" y2="167.002" stroke="white"/>
<line x1="1.53885" y1="165.392" x2="167.039" y2="84.16" stroke="white"/>
<line x1="167.484" y1="84.162" x2="332.224" y2="166.912" stroke="white"/>
<line x1="1.22196" y1="166.152" x2="166.722" y2="248.142" stroke="white"/>
<line x1="167.038" y1="248.142" x2="331.779" y2="166.91" stroke="white"/>
<line x1="84.0619" y1="166.376" x2="166.812" y2="0.876007" stroke="white"/>
<line x1="166.947" y1="0.876003" x2="249.697" y2="166.376" stroke="white"/>
<line x1="84.1972" y1="166.376" x2="166.947" y2="331.876" stroke="white"/>
<line x1="166.053" y1="331.875" x2="248.803" y2="167.134" stroke="white"/>
<line x1="84.2297" y1="166.741" x2="50.0668" y2="282.894" stroke="white"/>
<line x1="49.4469" y1="282.273" x2="166.36" y2="248.111" stroke="white"/>
<line x1="249.729" y1="167.217" x2="283.892" y2="282.611" stroke="white"/>
<line x1="166.632" y1="248.867" x2="283.544" y2="280.753" stroke="white"/>
<line x1="167.115" y1="83.3708" x2="283.269" y2="48.4488" stroke="white"/>
<line x1="283.893" y1="49.0662" x2="249.73" y2="167.497" stroke="white"/>
<line x1="51.5873" y1="48.794" x2="84.2318" y2="166.466" stroke="white"/>
<line x1="51.2532" y1="48.4499" x2="166.648" y2="84.1311" stroke="white"/>
<line x1="51.6055" y1="48.9309" x2="50.0872" y2="281.238" stroke="white"/>
<line x1="51.1055" y1="48.4276" x2="283.413" y2="48.4276" stroke="white"/>
<line x1="283.913" y1="48.9276" x2="283.913" y2="281.235" stroke="white"/>
<line x1="283.416" y1="281.735" x2="50.3496" y2="283.253" stroke="white"/>
</g>
</svg>
