<svg width="1277" height="76" viewBox="0 0 1277 76" fill="none" xmlns="http://www.w3.org/2000/svg">
<path d="M16.7211 48.0996V15.7476H21.2331V48.0996H16.7211ZM5.39313 18.9156V14.7876H32.5131V18.9156H5.39313ZM60.4491 48.0996V34.8036C60.4491 33.0756 59.9051 31.6516 58.8171 30.5316C57.7291 29.4116 56.3211 28.8516 54.5931 28.8516C53.4411 28.8516 52.4171 29.1076 51.5211 29.6196C50.6251 30.1316 49.9211 30.8356 49.4091 31.7316C48.8971 32.6276 48.6411 33.6516 48.6411 34.8036L46.8651 33.7956C46.8651 32.0676 47.2491 30.5316 48.0171 29.1876C48.7851 27.8436 49.8571 26.7876 51.2331 26.0196C52.6091 25.2196 54.1611 24.8196 55.8891 24.8196C57.6171 24.8196 59.1371 25.2036 60.4491 25.9716C61.7931 26.7396 62.8491 27.8116 63.6171 29.1876C64.3851 30.5636 64.7691 32.1476 64.7691 33.9396V48.0996H60.4491ZM44.3211 48.0996V13.8276H48.6411V48.0996H44.3211ZM77.866 48.0996V25.2996H82.186V48.0996H77.866ZM80.026 20.7396C79.226 20.7396 78.57 20.4836 78.058 19.9716C77.546 19.4276 77.29 18.7556 77.29 17.9556C77.29 17.1876 77.546 16.5476 78.058 16.0356C78.57 15.4916 79.226 15.2196 80.026 15.2196C80.826 15.2196 81.482 15.4916 81.994 16.0356C82.506 16.5476 82.762 17.1876 82.762 17.9556C82.762 18.7556 82.506 19.4276 81.994 19.9716C81.482 20.4836 80.826 20.7396 80.026 20.7396ZM111.88 48.0996V34.8036C111.88 33.0756 111.336 31.6516 110.248 30.5316C109.16 29.4116 107.752 28.8516 106.024 28.8516C104.872 28.8516 103.848 29.1076 102.952 29.6196C102.056 30.1316 101.352 30.8356 100.84 31.7316C100.328 32.6276 100.072 33.6516 100.072 34.8036L98.2964 33.7956C98.2964 32.0676 98.6804 30.5316 99.4484 29.1876C100.216 27.8436 101.288 26.7876 102.664 26.0196C104.04 25.2196 105.592 24.8196 107.32 24.8196C109.048 24.8196 110.568 25.2516 111.88 26.1156C113.224 26.9796 114.28 28.1156 115.048 29.5236C115.816 30.8996 116.2 32.3716 116.2 33.9396V48.0996H111.88ZM95.7524 48.0996V25.2996H100.072V48.0996H95.7524ZM143.841 48.0996L133.185 36.4356L143.745 25.2996H148.977L137.217 37.5876L137.409 35.0916L149.409 48.0996H143.841ZM129.249 48.0996V13.8276H133.569V48.0996H129.249ZM177.588 48.0996V25.2996H181.908V48.0996H177.588ZM179.748 20.7396C178.948 20.7396 178.292 20.4836 177.78 19.9716C177.268 19.4276 177.012 18.7556 177.012 17.9556C177.012 17.1876 177.268 16.5476 177.78 16.0356C178.292 15.4916 178.948 15.2196 179.748 15.2196C180.548 15.2196 181.204 15.4916 181.716 16.0356C182.228 16.5476 182.484 17.1876 182.484 17.9556C182.484 18.7556 182.228 19.4276 181.716 19.9716C181.204 20.4836 180.548 20.7396 179.748 20.7396ZM198.978 48.0996V15.7476H203.298V48.0996H198.978ZM193.362 29.2356V25.2996H208.914V29.2356H193.362ZM222.498 48.5796C221.602 48.5796 220.85 48.2756 220.242 47.6676C219.666 47.0276 219.378 46.2756 219.378 45.4116C219.378 44.5156 219.666 43.7796 220.242 43.2036C220.85 42.5956 221.602 42.2916 222.498 42.2916C223.394 42.2916 224.13 42.5956 224.706 43.2036C225.314 43.7796 225.618 44.5156 225.618 45.4116C225.618 46.2756 225.314 47.0276 224.706 47.6676C224.13 48.2756 223.394 48.5796 222.498 48.5796ZM260.804 48.0996V44.1636H270.884C272.804 44.1636 274.308 43.6036 275.396 42.4836C276.484 41.3316 277.028 39.9556 277.028 38.3556C277.028 37.2676 276.788 36.2916 276.308 35.4276C275.828 34.5316 275.124 33.8276 274.196 33.3156C273.3 32.8036 272.244 32.5476 271.028 32.5476H260.804V28.6116H270.356C271.956 28.6116 273.22 28.1956 274.148 27.3636C275.108 26.4996 275.588 25.2676 275.588 23.6676C275.588 22.0676 275.092 20.8516 274.1 20.0196C273.108 19.1556 271.796 18.7236 270.164 18.7236H260.804V14.7876H270.26C272.436 14.7876 274.244 15.1876 275.684 15.9876C277.156 16.7556 278.26 17.7796 278.996 19.0596C279.764 20.3396 280.148 21.7476 280.148 23.2836C280.148 25.0756 279.652 26.6436 278.66 27.9876C277.7 29.3316 276.276 30.3876 274.388 31.1556L274.772 29.7156C276.916 30.4836 278.58 31.6516 279.764 33.2196C280.98 34.7556 281.588 36.5796 281.588 38.6916C281.588 40.4516 281.156 42.0356 280.292 43.4436C279.428 44.8516 278.18 45.9876 276.548 46.8516C274.948 47.6836 272.98 48.0996 270.644 48.0996H260.804ZM257.78 48.0996V14.7876H262.292V48.0996H257.78ZM303.286 48.5796C301.43 48.5796 299.75 48.1636 298.246 47.3316C296.774 46.4676 295.622 45.2836 294.79 43.7796C293.958 42.2756 293.542 40.5316 293.542 38.5476V25.2996H297.862V38.3556C297.862 39.6036 298.07 40.6916 298.486 41.6196C298.934 42.5156 299.574 43.2036 300.406 43.6836C301.238 44.1636 302.214 44.4036 303.334 44.4036C305.03 44.4036 306.358 43.8756 307.318 42.8196C308.278 41.7316 308.758 40.2436 308.758 38.3556V25.2996H313.078V38.5476C313.078 40.5316 312.662 42.2756 311.83 43.7796C310.998 45.2836 309.846 46.4676 308.374 47.3316C306.934 48.1636 305.238 48.5796 303.286 48.5796ZM326.116 48.0996V25.2996H330.436V48.0996H326.116ZM328.276 20.7396C327.476 20.7396 326.82 20.4836 326.308 19.9716C325.796 19.4276 325.54 18.7556 325.54 17.9556C325.54 17.1876 325.796 16.5476 326.308 16.0356C326.82 15.4916 327.476 15.2196 328.276 15.2196C329.076 15.2196 329.732 15.4916 330.244 16.0356C330.756 16.5476 331.012 17.1876 331.012 17.9556C331.012 18.7556 330.756 19.4276 330.244 19.9716C329.732 20.4836 329.076 20.7396 328.276 20.7396ZM344.002 48.0996V13.8276H348.322V48.0996H344.002ZM371.491 48.5796C369.379 48.5796 367.491 48.0676 365.827 47.0436C364.163 45.9876 362.835 44.5636 361.843 42.7716C360.883 40.9796 360.403 38.9636 360.403 36.7236C360.403 34.4836 360.883 32.4676 361.843 30.6756C362.835 28.8836 364.163 27.4596 365.827 26.4036C367.491 25.3476 369.379 24.8196 371.491 24.8196C373.187 24.8196 374.723 25.1876 376.099 25.9236C377.475 26.6276 378.579 27.6196 379.411 28.8996C380.275 30.1476 380.755 31.6036 380.851 33.2676V40.1316C380.755 41.7636 380.291 43.2196 379.459 44.4996C378.627 45.7796 377.523 46.7876 376.147 47.5236C374.771 48.2276 373.219 48.5796 371.491 48.5796ZM372.211 44.4996C373.651 44.4996 374.899 44.1636 375.955 43.4916C377.043 42.8196 377.891 41.9076 378.499 40.7556C379.107 39.5716 379.411 38.2276 379.411 36.7236C379.411 35.1556 379.091 33.7956 378.451 32.6436C377.843 31.4916 376.995 30.5796 375.907 29.9076C374.851 29.2356 373.603 28.8996 372.163 28.8996C370.723 28.8996 369.459 29.2356 368.371 29.9076C367.283 30.5796 366.419 31.5076 365.779 32.6916C365.171 33.8436 364.867 35.1716 364.867 36.6756C364.867 38.2116 365.171 39.5716 365.779 40.7556C366.419 41.9076 367.283 42.8196 368.371 43.4916C369.491 44.1636 370.771 44.4996 372.211 44.4996ZM383.491 48.0996H379.123V41.9556L379.939 36.3876L379.123 30.8676V13.8276H383.491V48.0996ZM414.213 48.0996V25.2996H418.533V48.0996H414.213ZM416.373 20.7396C415.573 20.7396 414.917 20.4836 414.405 19.9716C413.893 19.4276 413.637 18.7556 413.637 17.9556C413.637 17.1876 413.893 16.5476 414.405 16.0356C414.917 15.4916 415.573 15.2196 416.373 15.2196C417.173 15.2196 417.829 15.4916 418.341 16.0356C418.853 16.5476 419.109 17.1876 419.109 17.9556C419.109 18.7556 418.853 19.4276 418.341 19.9716C417.829 20.4836 417.173 20.7396 416.373 20.7396ZM435.603 48.0996V15.7476H439.923V48.0996H435.603ZM429.987 29.2356V25.2996H445.539V29.2356H429.987ZM459.123 48.5796C458.227 48.5796 457.475 48.2756 456.867 47.6676C456.291 47.0276 456.003 46.2756 456.003 45.4116C456.003 44.5156 456.291 43.7796 456.867 43.2036C457.475 42.5956 458.227 42.2916 459.123 42.2916C460.019 42.2916 460.755 42.5956 461.331 43.2036C461.939 43.7796 462.243 44.5156 462.243 45.4116C462.243 46.2756 461.939 47.0276 461.331 47.6676C460.755 48.2756 460.019 48.5796 459.123 48.5796ZM494.405 48.0996V14.7876H498.917V48.0996H494.405ZM529.34 48.0996V34.8036C529.34 33.0756 528.796 31.6516 527.708 30.5316C526.62 29.4116 525.212 28.8516 523.484 28.8516C522.332 28.8516 521.308 29.1076 520.412 29.6196C519.516 30.1316 518.812 30.8356 518.3 31.7316C517.788 32.6276 517.532 33.6516 517.532 34.8036L515.756 33.7956C515.756 32.0676 516.14 30.5316 516.908 29.1876C517.676 27.8436 518.748 26.7876 520.124 26.0196C521.5 25.2196 523.052 24.8196 524.78 24.8196C526.508 24.8196 528.028 25.2516 529.34 26.1156C530.684 26.9796 531.74 28.1156 532.508 29.5236C533.276 30.8996 533.66 32.3716 533.66 33.9396V48.0996H529.34ZM513.212 48.0996V25.2996H517.532V48.0996H513.212ZM562.837 48.0996V34.8036C562.837 33.0756 562.293 31.6516 561.205 30.5316C560.117 29.4116 558.709 28.8516 556.981 28.8516C555.829 28.8516 554.805 29.1076 553.909 29.6196C553.013 30.1316 552.309 30.8356 551.797 31.7316C551.285 32.6276 551.029 33.6516 551.029 34.8036L549.253 33.7956C549.253 32.0676 549.637 30.5316 550.405 29.1876C551.173 27.8436 552.245 26.7876 553.621 26.0196C554.997 25.2196 556.549 24.8196 558.277 24.8196C560.005 24.8196 561.525 25.2516 562.837 26.1156C564.181 26.9796 565.237 28.1156 566.005 29.5236C566.773 30.8996 567.157 32.3716 567.157 33.9396V48.0996H562.837ZM546.709 48.0996V25.2996H551.029V48.0996H546.709ZM590.621 48.5796C588.381 48.5796 586.365 48.0516 584.573 46.9956C582.781 45.9396 581.357 44.5156 580.301 42.7236C579.245 40.8996 578.717 38.8676 578.717 36.6276C578.717 34.4196 579.245 32.4356 580.301 30.6756C581.357 28.8836 582.781 27.4596 584.573 26.4036C586.365 25.3476 588.381 24.8196 590.621 24.8196C592.829 24.8196 594.829 25.3476 596.621 26.4036C598.445 27.4276 599.885 28.8356 600.941 30.6276C601.997 32.4196 602.525 34.4196 602.525 36.6276C602.525 38.8676 601.997 40.8996 600.941 42.7236C599.885 44.5156 598.445 45.9396 596.621 46.9956C594.829 48.0516 592.829 48.5796 590.621 48.5796ZM590.621 44.4036C592.061 44.4036 593.341 44.0676 594.461 43.3956C595.581 42.7236 596.461 41.8116 597.101 40.6596C597.741 39.4756 598.061 38.1316 598.061 36.6276C598.061 35.1556 597.725 33.8436 597.053 32.6916C596.413 31.5396 595.533 30.6436 594.413 30.0036C593.325 29.3316 592.061 28.9956 590.621 28.9956C589.181 28.9956 587.901 29.3316 586.781 30.0036C585.661 30.6436 584.781 31.5396 584.141 32.6916C583.501 33.8436 583.181 35.1556 583.181 36.6276C583.181 38.1316 583.501 39.4756 584.141 40.6596C584.781 41.8116 585.661 42.7236 586.781 43.3956C587.901 44.0676 589.181 44.4036 590.621 44.4036ZM621.526 48.0996L611.062 25.2996H615.862L624.262 44.5476H621.478L629.926 25.2996H634.534L624.07 48.0996H621.526ZM654.223 48.5796C652.143 48.5796 650.255 48.0676 648.559 47.0436C646.863 45.9876 645.519 44.5636 644.527 42.7716C643.567 40.9796 643.087 38.9636 643.087 36.7236C643.087 34.4836 643.567 32.4676 644.527 30.6756C645.519 28.8836 646.847 27.4596 648.511 26.4036C650.207 25.3476 652.111 24.8196 654.223 24.8196C655.951 24.8196 657.487 25.1876 658.831 25.9236C660.207 26.6276 661.311 27.6196 662.143 28.8996C662.975 30.1476 663.439 31.6036 663.535 33.2676V40.1316C663.439 41.7636 662.975 43.2196 662.143 44.4996C661.343 45.7796 660.255 46.7876 658.879 47.5236C657.535 48.2276 655.983 48.5796 654.223 48.5796ZM654.943 44.4996C657.087 44.4996 658.815 43.7796 660.127 42.3396C661.439 40.8676 662.095 38.9956 662.095 36.7236C662.095 35.1556 661.791 33.7956 661.183 32.6436C660.607 31.4596 659.775 30.5476 658.687 29.9076C657.599 29.2356 656.335 28.8996 654.895 28.8996C653.455 28.8996 652.175 29.2356 651.055 29.9076C649.967 30.5796 649.103 31.5076 648.463 32.6916C647.855 33.8436 647.551 35.1716 647.551 36.6756C647.551 38.2116 647.855 39.5716 648.463 40.7556C649.103 41.9076 649.983 42.8196 651.103 43.4916C652.223 44.1636 653.503 44.4996 654.943 44.4996ZM661.807 48.0996V41.9556L662.623 36.3876L661.807 30.8676V25.2996H666.175V48.0996H661.807ZM683.075 48.0996V15.7476H687.395V48.0996H683.075ZM677.459 29.2356V25.2996H693.011V29.2356H677.459ZM714.3 48.5796C712.028 48.5796 709.98 48.0676 708.156 47.0436C706.332 45.9876 704.892 44.5636 703.836 42.7716C702.78 40.9796 702.252 38.9476 702.252 36.6756C702.252 34.4356 702.764 32.4196 703.788 30.6276C704.844 28.8356 706.252 27.4276 708.012 26.4036C709.804 25.3476 711.804 24.8196 714.012 24.8196C716.124 24.8196 717.98 25.2996 719.58 26.2596C721.212 27.2196 722.476 28.5476 723.372 30.2436C724.3 31.9396 724.764 33.8596 724.764 36.0036C724.764 36.3236 724.748 36.6756 724.716 37.0596C724.684 37.4116 724.62 37.8276 724.524 38.3076H705.276V34.7076H722.22L720.636 36.0996C720.636 34.5636 720.364 33.2676 719.82 32.2116C719.276 31.1236 718.508 30.2916 717.516 29.7156C716.524 29.1076 715.324 28.8036 713.916 28.8036C712.444 28.8036 711.148 29.1236 710.028 29.7636C708.908 30.4036 708.044 31.2996 707.436 32.4516C706.828 33.6036 706.524 34.9636 706.524 36.5316C706.524 38.1316 706.844 39.5396 707.484 40.7556C708.124 41.9396 709.036 42.8676 710.22 43.5396C711.404 44.1796 712.764 44.4996 714.3 44.4996C715.58 44.4996 716.748 44.2756 717.804 43.8276C718.892 43.3796 719.82 42.7076 720.588 41.8116L723.372 44.6436C722.284 45.9236 720.94 46.8996 719.34 47.5716C717.772 48.2436 716.092 48.5796 714.3 48.5796ZM740.466 48.5796C739.57 48.5796 738.818 48.2756 738.21 47.6676C737.634 47.0276 737.346 46.2756 737.346 45.4116C737.346 44.5156 737.634 43.7796 738.21 43.2036C738.818 42.5956 739.57 42.2916 740.466 42.2916C741.362 42.2916 742.098 42.5956 742.674 43.2036C743.282 43.7796 743.586 44.5156 743.586 45.4116C743.586 46.2756 743.282 47.0276 742.674 47.6676C742.098 48.2756 741.362 48.5796 740.466 48.5796ZM790.869 48.5796C788.469 48.5796 786.245 48.1476 784.197 47.2836C782.149 46.3876 780.357 45.1556 778.821 43.5876C777.317 42.0196 776.149 40.1956 775.317 38.1156C774.485 36.0356 774.069 33.8116 774.069 31.4436C774.069 29.0436 774.485 26.8036 775.317 24.7236C776.149 22.6436 777.317 20.8356 778.821 19.2996C780.357 17.7316 782.133 16.5156 784.148 15.6516C786.197 14.7556 788.421 14.3076 790.821 14.3076C793.445 14.3076 795.749 14.7556 797.733 15.6516C799.717 16.5476 801.477 17.7636 803.013 19.2996L799.893 22.4196C798.837 21.2356 797.541 20.3076 796.005 19.6356C794.501 18.9636 792.773 18.6276 790.821 18.6276C789.061 18.6276 787.445 18.9476 785.973 19.5876C784.501 20.1956 783.221 21.0756 782.133 22.2276C781.045 23.3796 780.197 24.7396 779.589 26.3076C779.013 27.8756 778.725 29.5876 778.725 31.4436C778.725 33.2996 779.013 35.0116 779.589 36.5796C780.197 38.1476 781.045 39.5076 782.133 40.6596C783.221 41.8116 784.501 42.7076 785.973 43.3476C787.445 43.9556 789.061 44.2596 790.821 44.2596C792.901 44.2596 794.709 43.9236 796.245 43.2516C797.781 42.5476 799.077 41.6036 800.133 40.4196L803.253 43.4916C801.717 45.0916 799.909 46.3396 797.829 47.2356C795.781 48.1316 793.461 48.5796 790.869 48.5796ZM831.355 48.0996V34.8036C831.355 33.0756 830.811 31.6516 829.723 30.5316C828.635 29.4116 827.227 28.8516 825.499 28.8516C824.347 28.8516 823.323 29.1076 822.427 29.6196C821.531 30.1316 820.827 30.8356 820.315 31.7316C819.803 32.6276 819.547 33.6516 819.547 34.8036L817.771 33.7956C817.771 32.0676 818.155 30.5316 818.923 29.1876C819.691 27.8436 820.763 26.7876 822.139 26.0196C823.515 25.2196 825.067 24.8196 826.795 24.8196C828.523 24.8196 830.043 25.2036 831.355 25.9716C832.699 26.7396 833.755 27.8116 834.523 29.1876C835.291 30.5636 835.675 32.1476 835.675 33.9396V48.0996H831.355ZM815.227 48.0996V13.8276H819.547V48.0996H815.227ZM858.42 48.5796C856.34 48.5796 854.452 48.0676 852.756 47.0436C851.06 45.9876 849.716 44.5636 848.724 42.7716C847.764 40.9796 847.284 38.9636 847.284 36.7236C847.284 34.4836 847.764 32.4676 848.724 30.6756C849.716 28.8836 851.044 27.4596 852.708 26.4036C854.404 25.3476 856.308 24.8196 858.42 24.8196C860.148 24.8196 861.684 25.1876 863.028 25.9236C864.404 26.6276 865.508 27.6196 866.34 28.8996C867.172 30.1476 867.636 31.6036 867.732 33.2676V40.1316C867.636 41.7636 867.172 43.2196 866.34 44.4996C865.54 45.7796 864.452 46.7876 863.076 47.5236C861.732 48.2276 860.18 48.5796 858.42 48.5796ZM859.14 44.4996C861.284 44.4996 863.012 43.7796 864.324 42.3396C865.636 40.8676 866.292 38.9956 866.292 36.7236C866.292 35.1556 865.988 33.7956 865.38 32.6436C864.804 31.4596 863.972 30.5476 862.884 29.9076C861.796 29.2356 860.532 28.8996 859.092 28.8996C857.652 28.8996 856.372 29.2356 855.252 29.9076C854.164 30.5796 853.3 31.5076 852.66 32.6916C852.052 33.8436 851.748 35.1716 851.748 36.6756C851.748 38.2116 852.052 39.5716 852.66 40.7556C853.3 41.9076 854.18 42.8196 855.3 43.4916C856.42 44.1636 857.7 44.4996 859.14 44.4996ZM866.004 48.0996V41.9556L866.82 36.3876L866.004 30.8676V25.2996H870.372V48.0996H866.004ZM899.99 48.0996V34.8036C899.99 33.0756 899.446 31.6516 898.358 30.5316C897.27 29.4116 895.862 28.8516 894.134 28.8516C892.982 28.8516 891.958 29.1076 891.062 29.6196C890.166 30.1316 889.462 30.8356 888.95 31.7316C888.438 32.6276 888.182 33.6516 888.182 34.8036L886.406 33.7956C886.406 32.0676 886.79 30.5316 887.558 29.1876C888.326 27.8436 889.398 26.7876 890.774 26.0196C892.15 25.2196 893.702 24.8196 895.43 24.8196C897.158 24.8196 898.678 25.2516 899.99 26.1156C901.334 26.9796 902.39 28.1156 903.158 29.5236C903.926 30.8996 904.31 32.3716 904.31 33.9396V48.0996H899.99ZM883.862 48.0996V25.2996H888.182V48.0996H883.862ZM926.815 58.1316C924.479 58.1316 922.399 57.6996 920.575 56.8356C918.783 55.9716 917.343 54.7556 916.255 53.1876L919.039 50.3556C919.967 51.5396 921.071 52.4356 922.351 53.0436C923.631 53.6836 925.151 54.0036 926.911 54.0036C929.247 54.0036 931.087 53.3796 932.431 52.1316C933.807 50.9156 934.495 49.2676 934.495 47.1876V41.5236L935.263 36.3876L934.495 31.2996V25.2996H938.815V47.1876C938.815 49.3636 938.303 51.2676 937.279 52.8996C936.287 54.5316 934.879 55.8116 933.055 56.7396C931.263 57.6676 929.183 58.1316 926.815 58.1316ZM926.815 47.7156C924.735 47.7156 922.863 47.2196 921.199 46.2276C919.567 45.2356 918.271 43.8756 917.311 42.1476C916.351 40.3876 915.871 38.4196 915.871 36.2436C915.871 34.0676 916.351 32.1316 917.311 30.4356C918.271 28.7076 919.567 27.3476 921.199 26.3556C922.863 25.3316 924.735 24.8196 926.815 24.8196C928.607 24.8196 930.191 25.1716 931.567 25.8756C932.943 26.5796 934.031 27.5716 934.831 28.8516C935.663 30.0996 936.111 31.5716 936.175 33.2676V39.3156C936.079 40.9796 935.615 42.4516 934.783 43.7316C933.983 44.9796 932.895 45.9556 931.519 46.6596C930.143 47.3636 928.575 47.7156 926.815 47.7156ZM927.679 43.6356C929.087 43.6356 930.319 43.3316 931.375 42.7236C932.463 42.1156 933.295 41.2676 933.871 40.1796C934.447 39.0596 934.735 37.7636 934.735 36.2916C934.735 34.8196 934.431 33.5396 933.823 32.4516C933.247 31.3316 932.431 30.4676 931.375 29.8596C930.319 29.2196 929.071 28.8996 927.631 28.8996C926.191 28.8996 924.927 29.2196 923.839 29.8596C922.751 30.4676 921.887 31.3316 921.247 32.4516C920.639 33.5396 920.335 34.8036 920.335 36.2436C920.335 37.6836 920.639 38.9636 921.247 40.0836C921.887 41.2036 922.751 42.0836 923.839 42.7236C924.959 43.3316 926.239 43.6356 927.679 43.6356ZM962.916 48.5796C960.644 48.5796 958.596 48.0676 956.772 47.0436C954.948 45.9876 953.508 44.5636 952.452 42.7716C951.396 40.9796 950.868 38.9476 950.868 36.6756C950.868 34.4356 951.38 32.4196 952.404 30.6276C953.46 28.8356 954.868 27.4276 956.628 26.4036C958.42 25.3476 960.42 24.8196 962.628 24.8196C964.74 24.8196 966.596 25.2996 968.196 26.2596C969.828 27.2196 971.092 28.5476 971.988 30.2436C972.916 31.9396 973.38 33.8596 973.38 36.0036C973.38 36.3236 973.364 36.6756 973.332 37.0596C973.3 37.4116 973.236 37.8276 973.14 38.3076H953.892V34.7076H970.836L969.252 36.0996C969.252 34.5636 968.98 33.2676 968.436 32.2116C967.892 31.1236 967.124 30.2916 966.132 29.7156C965.14 29.1076 963.94 28.8036 962.532 28.8036C961.06 28.8036 959.764 29.1236 958.644 29.7636C957.524 30.4036 956.66 31.2996 956.052 32.4516C955.444 33.6036 955.14 34.9636 955.14 36.5316C955.14 38.1316 955.46 39.5396 956.1 40.7556C956.74 41.9396 957.652 42.8676 958.836 43.5396C960.02 44.1796 961.38 44.4996 962.916 44.4996C964.196 44.4996 965.364 44.2756 966.42 43.8276C967.508 43.3796 968.436 42.7076 969.204 41.8116L971.988 44.6436C970.9 45.9236 969.556 46.8996 967.956 47.5716C966.388 48.2436 964.708 48.5796 962.916 48.5796ZM1005.98 48.0996V15.7476H1010.3V48.0996H1005.98ZM1000.36 29.2356V25.2996H1015.91V29.2356H1000.36ZM1043.47 48.0996V34.8036C1043.47 33.0756 1042.93 31.6516 1041.84 30.5316C1040.75 29.4116 1039.35 28.8516 1037.62 28.8516C1036.47 28.8516 1035.44 29.1076 1034.55 29.6196C1033.65 30.1316 1032.95 30.8356 1032.43 31.7316C1031.92 32.6276 1031.67 33.6516 1031.67 34.8036L1029.89 33.7956C1029.89 32.0676 1030.27 30.5316 1031.04 29.1876C1031.81 27.8436 1032.88 26.7876 1034.26 26.0196C1035.63 25.2196 1037.19 24.8196 1038.91 24.8196C1040.64 24.8196 1042.16 25.2036 1043.47 25.9716C1044.82 26.7396 1045.87 27.8116 1046.64 29.1876C1047.41 30.5636 1047.79 32.1476 1047.79 33.9396V48.0996H1043.47ZM1027.35 48.0996V13.8276H1031.67V48.0996H1027.35ZM1071.4 48.5796C1069.13 48.5796 1067.08 48.0676 1065.26 47.0436C1063.44 45.9876 1062 44.5636 1060.94 42.7716C1059.88 40.9796 1059.36 38.9476 1059.36 36.6756C1059.36 34.4356 1059.87 32.4196 1060.89 30.6276C1061.95 28.8356 1063.36 27.4276 1065.12 26.4036C1066.91 25.3476 1068.91 24.8196 1071.12 24.8196C1073.23 24.8196 1075.08 25.2996 1076.68 26.2596C1078.32 27.2196 1079.58 28.5476 1080.48 30.2436C1081.4 31.9396 1081.87 33.8596 1081.87 36.0036C1081.87 36.3236 1081.85 36.6756 1081.82 37.0596C1081.79 37.4116 1081.72 37.8276 1081.63 38.3076H1062.38V34.7076H1079.32L1077.74 36.0996C1077.74 34.5636 1077.47 33.2676 1076.92 32.2116C1076.38 31.1236 1075.61 30.2916 1074.62 29.7156C1073.63 29.1076 1072.43 28.8036 1071.02 28.8036C1069.55 28.8036 1068.25 29.1236 1067.13 29.7636C1066.01 30.4036 1065.15 31.2996 1064.54 32.4516C1063.93 33.6036 1063.63 34.9636 1063.63 36.5316C1063.63 38.1316 1063.95 39.5396 1064.59 40.7556C1065.23 41.9396 1066.14 42.8676 1067.32 43.5396C1068.51 44.1796 1069.87 44.4996 1071.4 44.4996C1072.68 44.4996 1073.85 44.2756 1074.91 43.8276C1076 43.3796 1076.92 42.7076 1077.69 41.8116L1080.48 44.6436C1079.39 45.9236 1078.04 46.8996 1076.44 47.5716C1074.88 48.2436 1073.2 48.5796 1071.4 48.5796ZM1120.42 58.1316C1118.08 58.1316 1116 57.6996 1114.18 56.8356C1112.39 55.9716 1110.95 54.7556 1109.86 53.1876L1112.64 50.3556C1113.57 51.5396 1114.67 52.4356 1115.95 53.0436C1117.23 53.6836 1118.75 54.0036 1120.51 54.0036C1122.85 54.0036 1124.69 53.3796 1126.03 52.1316C1127.41 50.9156 1128.1 49.2676 1128.1 47.1876V41.5236L1128.87 36.3876L1128.1 31.2996V25.2996H1132.42V47.1876C1132.42 49.3636 1131.91 51.2676 1130.88 52.8996C1129.89 54.5316 1128.48 55.8116 1126.66 56.7396C1124.87 57.6676 1122.79 58.1316 1120.42 58.1316ZM1120.42 47.7156C1118.34 47.7156 1116.47 47.2196 1114.8 46.2276C1113.17 45.2356 1111.87 43.8756 1110.91 42.1476C1109.95 40.3876 1109.47 38.4196 1109.47 36.2436C1109.47 34.0676 1109.95 32.1316 1110.91 30.4356C1111.87 28.7076 1113.17 27.3476 1114.8 26.3556C1116.47 25.3316 1118.34 24.8196 1120.42 24.8196C1122.21 24.8196 1123.79 25.1716 1125.17 25.8756C1126.55 26.5796 1127.63 27.5716 1128.43 28.8516C1129.27 30.0996 1129.71 31.5716 1129.78 33.2676V39.3156C1129.68 40.9796 1129.22 42.4516 1128.39 43.7316C1127.59 44.9796 1126.5 45.9556 1125.12 46.6596C1123.75 47.3636 1122.18 47.7156 1120.42 47.7156ZM1121.28 43.6356C1122.69 43.6356 1123.92 43.3316 1124.98 42.7236C1126.07 42.1156 1126.9 41.2676 1127.47 40.1796C1128.05 39.0596 1128.34 37.7636 1128.34 36.2916C1128.34 34.8196 1128.03 33.5396 1127.43 32.4516C1126.85 31.3316 1126.03 30.4676 1124.98 29.8596C1123.92 29.2196 1122.67 28.8996 1121.23 28.8996C1119.79 28.8996 1118.53 29.2196 1117.44 29.8596C1116.35 30.4676 1115.49 31.3316 1114.85 32.4516C1114.24 33.5396 1113.94 34.8036 1113.94 36.2436C1113.94 37.6836 1114.24 38.9636 1114.85 40.0836C1115.49 41.2036 1116.35 42.0836 1117.44 42.7236C1118.56 43.3316 1119.84 43.6356 1121.28 43.6356ZM1155.65 48.5796C1153.57 48.5796 1151.69 48.0676 1149.99 47.0436C1148.29 45.9876 1146.95 44.5636 1145.96 42.7716C1145 40.9796 1144.52 38.9636 1144.52 36.7236C1144.52 34.4836 1145 32.4676 1145.96 30.6756C1146.95 28.8836 1148.28 27.4596 1149.94 26.4036C1151.64 25.3476 1153.54 24.8196 1155.65 24.8196C1157.38 24.8196 1158.92 25.1876 1160.26 25.9236C1161.64 26.6276 1162.74 27.6196 1163.57 28.8996C1164.41 30.1476 1164.87 31.6036 1164.97 33.2676V40.1316C1164.87 41.7636 1164.41 43.2196 1163.57 44.4996C1162.77 45.7796 1161.69 46.7876 1160.31 47.5236C1158.97 48.2276 1157.41 48.5796 1155.65 48.5796ZM1156.37 44.4996C1158.52 44.4996 1160.25 43.7796 1161.56 42.3396C1162.87 40.8676 1163.53 38.9956 1163.53 36.7236C1163.53 35.1556 1163.22 33.7956 1162.61 32.6436C1162.04 31.4596 1161.21 30.5476 1160.12 29.9076C1159.03 29.2356 1157.77 28.8996 1156.33 28.8996C1154.89 28.8996 1153.61 29.2356 1152.49 29.9076C1151.4 30.5796 1150.53 31.5076 1149.89 32.6916C1149.29 33.8436 1148.98 35.1716 1148.98 36.6756C1148.98 38.2116 1149.29 39.5716 1149.89 40.7556C1150.53 41.9076 1151.41 42.8196 1152.53 43.4916C1153.65 44.1636 1154.93 44.4996 1156.37 44.4996ZM1163.24 48.0996V41.9556L1164.05 36.3876L1163.24 30.8676V25.2996H1167.61V48.0996H1163.24ZM1181.1 48.0996V25.2996H1185.42V48.0996H1181.1ZM1196.5 48.0996V34.3236C1196.5 32.6276 1195.98 31.2996 1194.92 30.3396C1193.9 29.3476 1192.6 28.8516 1191.03 28.8516C1189.98 28.8516 1189.03 29.0756 1188.2 29.5236C1187.37 29.9716 1186.7 30.5956 1186.18 31.3956C1185.67 32.1956 1185.42 33.1556 1185.42 34.2756L1183.64 33.4116C1183.64 31.6836 1184.01 30.1796 1184.74 28.8996C1185.51 27.6196 1186.55 26.6276 1187.86 25.9236C1189.18 25.1876 1190.65 24.8196 1192.28 24.8196C1193.88 24.8196 1195.32 25.1716 1196.6 25.8756C1197.91 26.5796 1198.94 27.5716 1199.67 28.8516C1200.44 30.1316 1200.82 31.6516 1200.82 33.4116V48.0996H1196.5ZM1211.91 48.0996V34.3236C1211.91 32.6276 1211.38 31.2996 1210.33 30.3396C1209.3 29.3476 1208.02 28.8516 1206.49 28.8516C1205.43 28.8516 1204.47 29.0756 1203.61 29.5236C1202.78 29.9716 1202.1 30.5956 1201.59 31.3956C1201.08 32.1956 1200.82 33.1556 1200.82 34.2756L1198.38 33.4116C1198.47 31.6516 1198.94 30.1476 1199.77 28.8996C1200.63 27.6196 1201.74 26.6276 1203.08 25.9236C1204.42 25.1876 1205.9 24.8196 1207.5 24.8196C1209.16 24.8196 1210.65 25.1716 1211.96 25.8756C1213.27 26.5796 1214.31 27.5716 1215.08 28.8516C1215.88 30.1316 1216.28 31.6676 1216.28 33.4596V48.0996H1211.91ZM1239.92 48.5796C1237.65 48.5796 1235.6 48.0676 1233.77 47.0436C1231.95 45.9876 1230.51 44.5636 1229.45 42.7716C1228.4 40.9796 1227.87 38.9476 1227.87 36.6756C1227.87 34.4356 1228.38 32.4196 1229.41 30.6276C1230.46 28.8356 1231.87 27.4276 1233.63 26.4036C1235.42 25.3476 1237.42 24.8196 1239.63 24.8196C1241.74 24.8196 1243.6 25.2996 1245.2 26.2596C1246.83 27.2196 1248.09 28.5476 1248.99 30.2436C1249.92 31.9396 1250.38 33.8596 1250.38 36.0036C1250.38 36.3236 1250.37 36.6756 1250.33 37.0596C1250.3 37.4116 1250.24 37.8276 1250.14 38.3076H1230.89V34.7076H1247.84L1246.25 36.0996C1246.25 34.5636 1245.98 33.2676 1245.44 32.2116C1244.89 31.1236 1244.13 30.2916 1243.13 29.7156C1242.14 29.1076 1240.94 28.8036 1239.53 28.8036C1238.06 28.8036 1236.77 29.1236 1235.65 29.7636C1234.53 30.4036 1233.66 31.2996 1233.05 32.4516C1232.45 33.6036 1232.14 34.9636 1232.14 36.5316C1232.14 38.1316 1232.46 39.5396 1233.1 40.7556C1233.74 41.9396 1234.65 42.8676 1235.84 43.5396C1237.02 44.1796 1238.38 44.4996 1239.92 44.4996C1241.2 44.4996 1242.37 44.2756 1243.42 43.8276C1244.51 43.3796 1245.44 42.7076 1246.21 41.8116L1248.99 44.6436C1247.9 45.9236 1246.56 46.8996 1244.96 47.5716C1243.39 48.2436 1241.71 48.5796 1239.92 48.5796ZM1266.09 48.5796C1265.19 48.5796 1264.44 48.2756 1263.83 47.6676C1263.25 47.0276 1262.97 46.2756 1262.97 45.4116C1262.97 44.5156 1263.25 43.7796 1263.83 43.2036C1264.44 42.5956 1265.19 42.2916 1266.09 42.2916C1266.98 42.2916 1267.72 42.5956 1268.29 43.2036C1268.9 43.7796 1269.21 44.5156 1269.21 45.4116C1269.21 46.2756 1268.9 47.0276 1268.29 47.6676C1267.72 48.2756 1266.98 48.5796 1266.09 48.5796Z" fill="white"/>
<line x1="0.495857" y1="72.5996" x2="1276.49" y2="69.5973" stroke="url(#paint0_linear_36_321)" stroke-width="5"/>
<defs>
<linearGradient id="paint0_linear_36_321" x1="0.502916" y1="75.5996" x2="1276.5" y2="72.5973" gradientUnits="userSpaceOnUse">
<stop stop-color="#8F57FF"/>
<stop offset="1" stop-color="#0C0C0C"/>
</linearGradient>
</defs>
</svg>
