<svg width="1277" height="367" viewBox="0 0 1277 367" fill="none" xmlns="http://www.w3.org/2000/svg">
<path d="M16.7211 182.601V150.249H21.2331V182.601H16.7211ZM5.39313 153.417V149.289H32.5131V153.417H5.39313ZM60.4491 182.601V169.305C60.4491 167.577 59.9051 166.153 58.8171 165.033C57.7291 163.913 56.3211 163.353 54.5931 163.353C53.4411 163.353 52.4171 163.609 51.5211 164.121C50.6251 164.633 49.9211 165.337 49.4091 166.233C48.8971 167.129 48.6411 168.153 48.6411 169.305L46.8651 168.297C46.8651 166.569 47.2491 165.033 48.0171 163.689C48.7851 162.345 49.8571 161.289 51.2331 160.521C52.6091 159.721 54.1611 159.321 55.8891 159.321C57.6171 159.321 59.1371 159.705 60.4491 160.473C61.7931 161.241 62.8491 162.313 63.6171 163.689C64.3851 165.065 64.7691 166.649 64.7691 168.441V182.601H60.4491ZM44.3211 182.601V148.329H48.6411V182.601H44.3211ZM77.866 182.601V159.801H82.186V182.601H77.866ZM80.026 155.241C79.226 155.241 78.57 154.985 78.058 154.473C77.546 153.929 77.29 153.257 77.29 152.457C77.29 151.689 77.546 151.049 78.058 150.537C78.57 149.993 79.226 149.721 80.026 149.721C80.826 149.721 81.482 149.993 81.994 150.537C82.506 151.049 82.762 151.689 82.762 152.457C82.762 153.257 82.506 153.929 81.994 154.473C81.482 154.985 80.826 155.241 80.026 155.241ZM111.88 182.601V169.305C111.88 167.577 111.336 166.153 110.248 165.033C109.16 163.913 107.752 163.353 106.024 163.353C104.872 163.353 103.848 163.609 102.952 164.121C102.056 164.633 101.352 165.337 100.84 166.233C100.328 167.129 100.072 168.153 100.072 169.305L98.2964 168.297C98.2964 166.569 98.6804 165.033 99.4484 163.689C100.216 162.345 101.288 161.289 102.664 160.521C104.04 159.721 105.592 159.321 107.32 159.321C109.048 159.321 110.568 159.753 111.88 160.617C113.224 161.481 114.28 162.617 115.048 164.025C115.816 165.401 116.2 166.873 116.2 168.441V182.601H111.88ZM95.7524 182.601V159.801H100.072V182.601H95.7524ZM143.841 182.601L133.185 170.937L143.745 159.801H148.977L137.217 172.089L137.409 169.593L149.409 182.601H143.841ZM129.249 182.601V148.329H133.569V182.601H129.249ZM177.588 182.601V159.801H181.908V182.601H177.588ZM179.748 155.241C178.948 155.241 178.292 154.985 177.78 154.473C177.268 153.929 177.012 153.257 177.012 152.457C177.012 151.689 177.268 151.049 177.78 150.537C178.292 149.993 178.948 149.721 179.748 149.721C180.548 149.721 181.204 149.993 181.716 150.537C182.228 151.049 182.484 151.689 182.484 152.457C182.484 153.257 182.228 153.929 181.716 154.473C181.204 154.985 180.548 155.241 179.748 155.241ZM198.978 182.601V150.249H203.298V182.601H198.978ZM193.362 163.737V159.801H208.914V163.737H193.362ZM222.498 183.081C221.602 183.081 220.85 182.777 220.242 182.169C219.666 181.529 219.378 180.777 219.378 179.913C219.378 179.017 219.666 178.281 220.242 177.705C220.85 177.097 221.602 176.793 222.498 176.793C223.394 176.793 224.13 177.097 224.706 177.705C225.314 178.281 225.618 179.017 225.618 179.913C225.618 180.777 225.314 181.529 224.706 182.169C224.13 182.777 223.394 183.081 222.498 183.081ZM260.804 182.601V178.665H270.884C272.804 178.665 274.308 178.105 275.396 176.985C276.484 175.833 277.028 174.457 277.028 172.857C277.028 171.769 276.788 170.793 276.308 169.929C275.828 169.033 275.124 168.329 274.196 167.817C273.3 167.305 272.244 167.049 271.028 167.049H260.804V163.113H270.356C271.956 163.113 273.22 162.697 274.148 161.865C275.108 161.001 275.588 159.769 275.588 158.169C275.588 156.569 275.092 155.353 274.1 154.521C273.108 153.657 271.796 153.225 270.164 153.225H260.804V149.289H270.26C272.436 149.289 274.244 149.689 275.684 150.489C277.156 151.257 278.26 152.281 278.996 153.561C279.764 154.841 280.148 156.249 280.148 157.785C280.148 159.577 279.652 161.145 278.66 162.489C277.7 163.833 276.276 164.889 274.388 165.657L274.772 164.217C276.916 164.985 278.58 166.153 279.764 167.721C280.98 169.257 281.588 171.081 281.588 173.193C281.588 174.953 281.156 176.537 280.292 177.945C279.428 179.353 278.18 180.489 276.548 181.353C274.948 182.185 272.98 182.601 270.644 182.601H260.804ZM257.78 182.601V149.289H262.292V182.601H257.78ZM303.286 183.081C301.43 183.081 299.75 182.665 298.246 181.833C296.774 180.969 295.622 179.785 294.79 178.281C293.958 176.777 293.542 175.033 293.542 173.049V159.801H297.862V172.857C297.862 174.105 298.07 175.193 298.486 176.121C298.934 177.017 299.574 177.705 300.406 178.185C301.238 178.665 302.214 178.905 303.334 178.905C305.03 178.905 306.358 178.377 307.318 177.321C308.278 176.233 308.758 174.745 308.758 172.857V159.801H313.078V173.049C313.078 175.033 312.662 176.777 311.83 178.281C310.998 179.785 309.846 180.969 308.374 181.833C306.934 182.665 305.238 183.081 303.286 183.081ZM326.116 182.601V159.801H330.436V182.601H326.116ZM328.276 155.241C327.476 155.241 326.82 154.985 326.308 154.473C325.796 153.929 325.54 153.257 325.54 152.457C325.54 151.689 325.796 151.049 326.308 150.537C326.82 149.993 327.476 149.721 328.276 149.721C329.076 149.721 329.732 149.993 330.244 150.537C330.756 151.049 331.012 151.689 331.012 152.457C331.012 153.257 330.756 153.929 330.244 154.473C329.732 154.985 329.076 155.241 328.276 155.241ZM344.002 182.601V148.329H348.322V182.601H344.002ZM371.491 183.081C369.379 183.081 367.491 182.569 365.827 181.545C364.163 180.489 362.835 179.065 361.843 177.273C360.883 175.481 360.403 173.465 360.403 171.225C360.403 168.985 360.883 166.969 361.843 165.177C362.835 163.385 364.163 161.961 365.827 160.905C367.491 159.849 369.379 159.321 371.491 159.321C373.187 159.321 374.723 159.689 376.099 160.425C377.475 161.129 378.579 162.121 379.411 163.401C380.275 164.649 380.755 166.105 380.851 167.769V174.633C380.755 176.265 380.291 177.721 379.459 179.001C378.627 180.281 377.523 181.289 376.147 182.025C374.771 182.729 373.219 183.081 371.491 183.081ZM372.211 179.001C373.651 179.001 374.899 178.665 375.955 177.993C377.043 177.321 377.891 176.409 378.499 175.257C379.107 174.073 379.411 172.729 379.411 171.225C379.411 169.657 379.091 168.297 378.451 167.145C377.843 165.993 376.995 165.081 375.907 164.409C374.851 163.737 373.603 163.401 372.163 163.401C370.723 163.401 369.459 163.737 368.371 164.409C367.283 165.081 366.419 166.009 365.779 167.193C365.171 168.345 364.867 169.673 364.867 171.177C364.867 172.713 365.171 174.073 365.779 175.257C366.419 176.409 367.283 177.321 368.371 177.993C369.491 178.665 370.771 179.001 372.211 179.001ZM383.491 182.601H379.123V176.457L379.939 170.889L379.123 165.369V148.329H383.491V182.601ZM414.213 182.601V159.801H418.533V182.601H414.213ZM416.373 155.241C415.573 155.241 414.917 154.985 414.405 154.473C413.893 153.929 413.637 153.257 413.637 152.457C413.637 151.689 413.893 151.049 414.405 150.537C414.917 149.993 415.573 149.721 416.373 149.721C417.173 149.721 417.829 149.993 418.341 150.537C418.853 151.049 419.109 151.689 419.109 152.457C419.109 153.257 418.853 153.929 418.341 154.473C417.829 154.985 417.173 155.241 416.373 155.241ZM435.603 182.601V150.249H439.923V182.601H435.603ZM429.987 163.737V159.801H445.539V163.737H429.987ZM459.123 183.081C458.227 183.081 457.475 182.777 456.867 182.169C456.291 181.529 456.003 180.777 456.003 179.913C456.003 179.017 456.291 178.281 456.867 177.705C457.475 177.097 458.227 176.793 459.123 176.793C460.019 176.793 460.755 177.097 461.331 177.705C461.939 178.281 462.243 179.017 462.243 179.913C462.243 180.777 461.939 181.529 461.331 182.169C460.755 182.777 460.019 183.081 459.123 183.081ZM494.405 182.601V149.289H498.917V182.601H494.405ZM529.34 182.601V169.305C529.34 167.577 528.796 166.153 527.708 165.033C526.62 163.913 525.212 163.353 523.484 163.353C522.332 163.353 521.308 163.609 520.412 164.121C519.516 164.633 518.812 165.337 518.3 166.233C517.788 167.129 517.532 168.153 517.532 169.305L515.756 168.297C515.756 166.569 516.14 165.033 516.908 163.689C517.676 162.345 518.748 161.289 520.124 160.521C521.5 159.721 523.052 159.321 524.78 159.321C526.508 159.321 528.028 159.753 529.34 160.617C530.684 161.481 531.74 162.617 532.508 164.025C533.276 165.401 533.66 166.873 533.66 168.441V182.601H529.34ZM513.212 182.601V159.801H517.532V182.601H513.212ZM562.837 182.601V169.305C562.837 167.577 562.293 166.153 561.205 165.033C560.117 163.913 558.709 163.353 556.981 163.353C555.829 163.353 554.805 163.609 553.909 164.121C553.013 164.633 552.309 165.337 551.797 166.233C551.285 167.129 551.029 168.153 551.029 169.305L549.253 168.297C549.253 166.569 549.637 165.033 550.405 163.689C551.173 162.345 552.245 161.289 553.621 160.521C554.997 159.721 556.549 159.321 558.277 159.321C560.005 159.321 561.525 159.753 562.837 160.617C564.181 161.481 565.237 162.617 566.005 164.025C566.773 165.401 567.157 166.873 567.157 168.441V182.601H562.837ZM546.709 182.601V159.801H551.029V182.601H546.709ZM590.621 183.081C588.381 183.081 586.365 182.553 584.573 181.497C582.781 180.441 581.357 179.017 580.301 177.225C579.245 175.401 578.717 173.369 578.717 171.129C578.717 168.921 579.245 166.937 580.301 165.177C581.357 163.385 582.781 161.961 584.573 160.905C586.365 159.849 588.381 159.321 590.621 159.321C592.829 159.321 594.829 159.849 596.621 160.905C598.445 161.929 599.885 163.337 600.941 165.129C601.997 166.921 602.525 168.921 602.525 171.129C602.525 173.369 601.997 175.401 600.941 177.225C599.885 179.017 598.445 180.441 596.621 181.497C594.829 182.553 592.829 183.081 590.621 183.081ZM590.621 178.905C592.061 178.905 593.341 178.569 594.461 177.897C595.581 177.225 596.461 176.313 597.101 175.161C597.741 173.977 598.061 172.633 598.061 171.129C598.061 169.657 597.725 168.345 597.053 167.193C596.413 166.041 595.533 165.145 594.413 164.505C593.325 163.833 592.061 163.497 590.621 163.497C589.181 163.497 587.901 163.833 586.781 164.505C585.661 165.145 584.781 166.041 584.141 167.193C583.501 168.345 583.181 169.657 583.181 171.129C583.181 172.633 583.501 173.977 584.141 175.161C584.781 176.313 585.661 177.225 586.781 177.897C587.901 178.569 589.181 178.905 590.621 178.905ZM621.526 182.601L611.062 159.801H615.862L624.262 179.049H621.478L629.926 159.801H634.534L624.07 182.601H621.526ZM654.223 183.081C652.143 183.081 650.255 182.569 648.559 181.545C646.863 180.489 645.519 179.065 644.527 177.273C643.567 175.481 643.087 173.465 643.087 171.225C643.087 168.985 643.567 166.969 644.527 165.177C645.519 163.385 646.847 161.961 648.511 160.905C650.207 159.849 652.111 159.321 654.223 159.321C655.951 159.321 657.487 159.689 658.831 160.425C660.207 161.129 661.311 162.121 662.143 163.401C662.975 164.649 663.439 166.105 663.535 167.769V174.633C663.439 176.265 662.975 177.721 662.143 179.001C661.343 180.281 660.255 181.289 658.879 182.025C657.535 182.729 655.983 183.081 654.223 183.081ZM654.943 179.001C657.087 179.001 658.815 178.281 660.127 176.841C661.439 175.369 662.095 173.497 662.095 171.225C662.095 169.657 661.791 168.297 661.183 167.145C660.607 165.961 659.775 165.049 658.687 164.409C657.599 163.737 656.335 163.401 654.895 163.401C653.455 163.401 652.175 163.737 651.055 164.409C649.967 165.081 649.103 166.009 648.463 167.193C647.855 168.345 647.551 169.673 647.551 171.177C647.551 172.713 647.855 174.073 648.463 175.257C649.103 176.409 649.983 177.321 651.103 177.993C652.223 178.665 653.503 179.001 654.943 179.001ZM661.807 182.601V176.457L662.623 170.889L661.807 165.369V159.801H666.175V182.601H661.807ZM683.075 182.601V150.249H687.395V182.601H683.075ZM677.459 163.737V159.801H693.011V163.737H677.459ZM714.3 183.081C712.028 183.081 709.98 182.569 708.156 181.545C706.332 180.489 704.892 179.065 703.836 177.273C702.78 175.481 702.252 173.449 702.252 171.177C702.252 168.937 702.764 166.921 703.788 165.129C704.844 163.337 706.252 161.929 708.012 160.905C709.804 159.849 711.804 159.321 714.012 159.321C716.124 159.321 717.98 159.801 719.58 160.761C721.212 161.721 722.476 163.049 723.372 164.745C724.3 166.441 724.764 168.361 724.764 170.505C724.764 170.825 724.748 171.177 724.716 171.561C724.684 171.913 724.62 172.329 724.524 172.809H705.276V169.209H722.22L720.636 170.601C720.636 169.065 720.364 167.769 719.82 166.713C719.276 165.625 718.508 164.793 717.516 164.217C716.524 163.609 715.324 163.305 713.916 163.305C712.444 163.305 711.148 163.625 710.028 164.265C708.908 164.905 708.044 165.801 707.436 166.953C706.828 168.105 706.524 169.465 706.524 171.033C706.524 172.633 706.844 174.041 707.484 175.257C708.124 176.441 709.036 177.369 710.22 178.041C711.404 178.681 712.764 179.001 714.3 179.001C715.58 179.001 716.748 178.777 717.804 178.329C718.892 177.881 719.82 177.209 720.588 176.313L723.372 179.145C722.284 180.425 720.94 181.401 719.34 182.073C717.772 182.745 716.092 183.081 714.3 183.081ZM740.466 183.081C739.57 183.081 738.818 182.777 738.21 182.169C737.634 181.529 737.346 180.777 737.346 179.913C737.346 179.017 737.634 178.281 738.21 177.705C738.818 177.097 739.57 176.793 740.466 176.793C741.362 176.793 742.098 177.097 742.674 177.705C743.282 178.281 743.586 179.017 743.586 179.913C743.586 180.777 743.282 181.529 742.674 182.169C742.098 182.777 741.362 183.081 740.466 183.081ZM790.869 183.081C788.469 183.081 786.245 182.649 784.197 181.785C782.149 180.889 780.357 179.657 778.821 178.089C777.317 176.521 776.149 174.697 775.317 172.617C774.485 170.537 774.069 168.313 774.069 165.945C774.069 163.545 774.485 161.305 775.317 159.225C776.149 157.145 777.317 155.337 778.821 153.801C780.357 152.233 782.133 151.017 784.148 150.153C786.197 149.257 788.421 148.809 790.821 148.809C793.445 148.809 795.749 149.257 797.733 150.153C799.717 151.049 801.477 152.265 803.013 153.801L799.893 156.921C798.837 155.737 797.541 154.809 796.005 154.137C794.501 153.465 792.773 153.129 790.821 153.129C789.061 153.129 787.445 153.449 785.973 154.089C784.501 154.697 783.221 155.577 782.133 156.729C781.045 157.881 780.197 159.241 779.589 160.809C779.013 162.377 778.725 164.089 778.725 165.945C778.725 167.801 779.013 169.513 779.589 171.081C780.197 172.649 781.045 174.009 782.133 175.161C783.221 176.313 784.501 177.209 785.973 177.849C787.445 178.457 789.061 178.761 790.821 178.761C792.901 178.761 794.709 178.425 796.245 177.753C797.781 177.049 799.077 176.105 800.133 174.921L803.253 177.993C801.717 179.593 799.909 180.841 797.829 181.737C795.781 182.633 793.461 183.081 790.869 183.081ZM831.355 182.601V169.305C831.355 167.577 830.811 166.153 829.723 165.033C828.635 163.913 827.227 163.353 825.499 163.353C824.347 163.353 823.323 163.609 822.427 164.121C821.531 164.633 820.827 165.337 820.315 166.233C819.803 167.129 819.547 168.153 819.547 169.305L817.771 168.297C817.771 166.569 818.155 165.033 818.923 163.689C819.691 162.345 820.763 161.289 822.139 160.521C823.515 159.721 825.067 159.321 826.795 159.321C828.523 159.321 830.043 159.705 831.355 160.473C832.699 161.241 833.755 162.313 834.523 163.689C835.291 165.065 835.675 166.649 835.675 168.441V182.601H831.355ZM815.227 182.601V148.329H819.547V182.601H815.227ZM858.42 183.081C856.34 183.081 854.452 182.569 852.756 181.545C851.06 180.489 849.716 179.065 848.724 177.273C847.764 175.481 847.284 173.465 847.284 171.225C847.284 168.985 847.764 166.969 848.724 165.177C849.716 163.385 851.044 161.961 852.708 160.905C854.404 159.849 856.308 159.321 858.42 159.321C860.148 159.321 861.684 159.689 863.028 160.425C864.404 161.129 865.508 162.121 866.34 163.401C867.172 164.649 867.636 166.105 867.732 167.769V174.633C867.636 176.265 867.172 177.721 866.34 179.001C865.54 180.281 864.452 181.289 863.076 182.025C861.732 182.729 860.18 183.081 858.42 183.081ZM859.14 179.001C861.284 179.001 863.012 178.281 864.324 176.841C865.636 175.369 866.292 173.497 866.292 171.225C866.292 169.657 865.988 168.297 865.38 167.145C864.804 165.961 863.972 165.049 862.884 164.409C861.796 163.737 860.532 163.401 859.092 163.401C857.652 163.401 856.372 163.737 855.252 164.409C854.164 165.081 853.3 166.009 852.66 167.193C852.052 168.345 851.748 169.673 851.748 171.177C851.748 172.713 852.052 174.073 852.66 175.257C853.3 176.409 854.18 177.321 855.3 177.993C856.42 178.665 857.7 179.001 859.14 179.001ZM866.004 182.601V176.457L866.82 170.889L866.004 165.369V159.801H870.372V182.601H866.004ZM899.99 182.601V169.305C899.99 167.577 899.446 166.153 898.358 165.033C897.27 163.913 895.862 163.353 894.134 163.353C892.982 163.353 891.958 163.609 891.062 164.121C890.166 164.633 889.462 165.337 888.95 166.233C888.438 167.129 888.182 168.153 888.182 169.305L886.406 168.297C886.406 166.569 886.79 165.033 887.558 163.689C888.326 162.345 889.398 161.289 890.774 160.521C892.15 159.721 893.702 159.321 895.43 159.321C897.158 159.321 898.678 159.753 899.99 160.617C901.334 161.481 902.39 162.617 903.158 164.025C903.926 165.401 904.31 166.873 904.31 168.441V182.601H899.99ZM883.862 182.601V159.801H888.182V182.601H883.862ZM926.815 192.633C924.479 192.633 922.399 192.201 920.575 191.337C918.783 190.473 917.343 189.257 916.255 187.689L919.039 184.857C919.967 186.041 921.071 186.937 922.351 187.545C923.631 188.185 925.151 188.505 926.911 188.505C929.247 188.505 931.087 187.881 932.431 186.633C933.807 185.417 934.495 183.769 934.495 181.689V176.025L935.263 170.889L934.495 165.801V159.801H938.815V181.689C938.815 183.865 938.303 185.769 937.279 187.401C936.287 189.033 934.879 190.313 933.055 191.241C931.263 192.169 929.183 192.633 926.815 192.633ZM926.815 182.217C924.735 182.217 922.863 181.721 921.199 180.729C919.567 179.737 918.271 178.377 917.311 176.649C916.351 174.889 915.871 172.921 915.871 170.745C915.871 168.569 916.351 166.633 917.311 164.937C918.271 163.209 919.567 161.849 921.199 160.857C922.863 159.833 924.735 159.321 926.815 159.321C928.607 159.321 930.191 159.673 931.567 160.377C932.943 161.081 934.031 162.073 934.831 163.353C935.663 164.601 936.111 166.073 936.175 167.769V173.817C936.079 175.481 935.615 176.953 934.783 178.233C933.983 179.481 932.895 180.457 931.519 181.161C930.143 181.865 928.575 182.217 926.815 182.217ZM927.679 178.137C929.087 178.137 930.319 177.833 931.375 177.225C932.463 176.617 933.295 175.769 933.871 174.681C934.447 173.561 934.735 172.265 934.735 170.793C934.735 169.321 934.431 168.041 933.823 166.953C933.247 165.833 932.431 164.969 931.375 164.361C930.319 163.721 929.071 163.401 927.631 163.401C926.191 163.401 924.927 163.721 923.839 164.361C922.751 164.969 921.887 165.833 921.247 166.953C920.639 168.041 920.335 169.305 920.335 170.745C920.335 172.185 920.639 173.465 921.247 174.585C921.887 175.705 922.751 176.585 923.839 177.225C924.959 177.833 926.239 178.137 927.679 178.137ZM962.916 183.081C960.644 183.081 958.596 182.569 956.772 181.545C954.948 180.489 953.508 179.065 952.452 177.273C951.396 175.481 950.868 173.449 950.868 171.177C950.868 168.937 951.38 166.921 952.404 165.129C953.46 163.337 954.868 161.929 956.628 160.905C958.42 159.849 960.42 159.321 962.628 159.321C964.74 159.321 966.596 159.801 968.196 160.761C969.828 161.721 971.092 163.049 971.988 164.745C972.916 166.441 973.38 168.361 973.38 170.505C973.38 170.825 973.364 171.177 973.332 171.561C973.3 171.913 973.236 172.329 973.14 172.809H953.892V169.209H970.836L969.252 170.601C969.252 169.065 968.98 167.769 968.436 166.713C967.892 165.625 967.124 164.793 966.132 164.217C965.14 163.609 963.94 163.305 962.532 163.305C961.06 163.305 959.764 163.625 958.644 164.265C957.524 164.905 956.66 165.801 956.052 166.953C955.444 168.105 955.14 169.465 955.14 171.033C955.14 172.633 955.46 174.041 956.1 175.257C956.74 176.441 957.652 177.369 958.836 178.041C960.02 178.681 961.38 179.001 962.916 179.001C964.196 179.001 965.364 178.777 966.42 178.329C967.508 177.881 968.436 177.209 969.204 176.313L971.988 179.145C970.9 180.425 969.556 181.401 967.956 182.073C966.388 182.745 964.708 183.081 962.916 183.081ZM1005.98 182.601V150.249H1010.3V182.601H1005.98ZM1000.36 163.737V159.801H1015.91V163.737H1000.36ZM1043.47 182.601V169.305C1043.47 167.577 1042.93 166.153 1041.84 165.033C1040.75 163.913 1039.35 163.353 1037.62 163.353C1036.47 163.353 1035.44 163.609 1034.55 164.121C1033.65 164.633 1032.95 165.337 1032.43 166.233C1031.92 167.129 1031.67 168.153 1031.67 169.305L1029.89 168.297C1029.89 166.569 1030.27 165.033 1031.04 163.689C1031.81 162.345 1032.88 161.289 1034.26 160.521C1035.63 159.721 1037.19 159.321 1038.91 159.321C1040.64 159.321 1042.16 159.705 1043.47 160.473C1044.82 161.241 1045.87 162.313 1046.64 163.689C1047.41 165.065 1047.79 166.649 1047.79 168.441V182.601H1043.47ZM1027.35 182.601V148.329H1031.67V182.601H1027.35ZM1071.4 183.081C1069.13 183.081 1067.08 182.569 1065.26 181.545C1063.44 180.489 1062 179.065 1060.94 177.273C1059.88 175.481 1059.36 173.449 1059.36 171.177C1059.36 168.937 1059.87 166.921 1060.89 165.129C1061.95 163.337 1063.36 161.929 1065.12 160.905C1066.91 159.849 1068.91 159.321 1071.12 159.321C1073.23 159.321 1075.08 159.801 1076.68 160.761C1078.32 161.721 1079.58 163.049 1080.48 164.745C1081.4 166.441 1081.87 168.361 1081.87 170.505C1081.87 170.825 1081.85 171.177 1081.82 171.561C1081.79 171.913 1081.72 172.329 1081.63 172.809H1062.38V169.209H1079.32L1077.74 170.601C1077.74 169.065 1077.47 167.769 1076.92 166.713C1076.38 165.625 1075.61 164.793 1074.62 164.217C1073.63 163.609 1072.43 163.305 1071.02 163.305C1069.55 163.305 1068.25 163.625 1067.13 164.265C1066.01 164.905 1065.15 165.801 1064.54 166.953C1063.93 168.105 1063.63 169.465 1063.63 171.033C1063.63 172.633 1063.95 174.041 1064.59 175.257C1065.23 176.441 1066.14 177.369 1067.32 178.041C1068.51 178.681 1069.87 179.001 1071.4 179.001C1072.68 179.001 1073.85 178.777 1074.91 178.329C1076 177.881 1076.92 177.209 1077.69 176.313L1080.48 179.145C1079.39 180.425 1078.04 181.401 1076.44 182.073C1074.88 182.745 1073.2 183.081 1071.4 183.081ZM1120.42 192.633C1118.08 192.633 1116 192.201 1114.18 191.337C1112.39 190.473 1110.95 189.257 1109.86 187.689L1112.64 184.857C1113.57 186.041 1114.67 186.937 1115.95 187.545C1117.23 188.185 1118.75 188.505 1120.51 188.505C1122.85 188.505 1124.69 187.881 1126.03 186.633C1127.41 185.417 1128.1 183.769 1128.1 181.689V176.025L1128.87 170.889L1128.1 165.801V159.801H1132.42V181.689C1132.42 183.865 1131.91 185.769 1130.88 187.401C1129.89 189.033 1128.48 190.313 1126.66 191.241C1124.87 192.169 1122.79 192.633 1120.42 192.633ZM1120.42 182.217C1118.34 182.217 1116.47 181.721 1114.8 180.729C1113.17 179.737 1111.87 178.377 1110.91 176.649C1109.95 174.889 1109.47 172.921 1109.47 170.745C1109.47 168.569 1109.95 166.633 1110.91 164.937C1111.87 163.209 1113.17 161.849 1114.8 160.857C1116.47 159.833 1118.34 159.321 1120.42 159.321C1122.21 159.321 1123.79 159.673 1125.17 160.377C1126.55 161.081 1127.63 162.073 1128.43 163.353C1129.27 164.601 1129.71 166.073 1129.78 167.769V173.817C1129.68 175.481 1129.22 176.953 1128.39 178.233C1127.59 179.481 1126.5 180.457 1125.12 181.161C1123.75 181.865 1122.18 182.217 1120.42 182.217ZM1121.28 178.137C1122.69 178.137 1123.92 177.833 1124.98 177.225C1126.07 176.617 1126.9 175.769 1127.47 174.681C1128.05 173.561 1128.34 172.265 1128.34 170.793C1128.34 169.321 1128.03 168.041 1127.43 166.953C1126.85 165.833 1126.03 164.969 1124.98 164.361C1123.92 163.721 1122.67 163.401 1121.23 163.401C1119.79 163.401 1118.53 163.721 1117.44 164.361C1116.35 164.969 1115.49 165.833 1114.85 166.953C1114.24 168.041 1113.94 169.305 1113.94 170.745C1113.94 172.185 1114.24 173.465 1114.85 174.585C1115.49 175.705 1116.35 176.585 1117.44 177.225C1118.56 177.833 1119.84 178.137 1121.28 178.137ZM1155.65 183.081C1153.57 183.081 1151.69 182.569 1149.99 181.545C1148.29 180.489 1146.95 179.065 1145.96 177.273C1145 175.481 1144.52 173.465 1144.52 171.225C1144.52 168.985 1145 166.969 1145.96 165.177C1146.95 163.385 1148.28 161.961 1149.94 160.905C1151.64 159.849 1153.54 159.321 1155.65 159.321C1157.38 159.321 1158.92 159.689 1160.26 160.425C1161.64 161.129 1162.74 162.121 1163.57 163.401C1164.41 164.649 1164.87 166.105 1164.97 167.769V174.633C1164.87 176.265 1164.41 177.721 1163.57 179.001C1162.77 180.281 1161.69 181.289 1160.31 182.025C1158.97 182.729 1157.41 183.081 1155.65 183.081ZM1156.37 179.001C1158.52 179.001 1160.25 178.281 1161.56 176.841C1162.87 175.369 1163.53 173.497 1163.53 171.225C1163.53 169.657 1163.22 168.297 1162.61 167.145C1162.04 165.961 1161.21 165.049 1160.12 164.409C1159.03 163.737 1157.77 163.401 1156.33 163.401C1154.89 163.401 1153.61 163.737 1152.49 164.409C1151.4 165.081 1150.53 166.009 1149.89 167.193C1149.29 168.345 1148.98 169.673 1148.98 171.177C1148.98 172.713 1149.29 174.073 1149.89 175.257C1150.53 176.409 1151.41 177.321 1152.53 177.993C1153.65 178.665 1154.93 179.001 1156.37 179.001ZM1163.24 182.601V176.457L1164.05 170.889L1163.24 165.369V159.801H1167.61V182.601H1163.24ZM1181.1 182.601V159.801H1185.42V182.601H1181.1ZM1196.5 182.601V168.825C1196.5 167.129 1195.98 165.801 1194.92 164.841C1193.9 163.849 1192.6 163.353 1191.03 163.353C1189.98 163.353 1189.03 163.577 1188.2 164.025C1187.37 164.473 1186.7 165.097 1186.18 165.897C1185.67 166.697 1185.42 167.657 1185.42 168.777L1183.64 167.913C1183.64 166.185 1184.01 164.681 1184.74 163.401C1185.51 162.121 1186.55 161.129 1187.86 160.425C1189.18 159.689 1190.65 159.321 1192.28 159.321C1193.88 159.321 1195.32 159.673 1196.6 160.377C1197.91 161.081 1198.94 162.073 1199.67 163.353C1200.44 164.633 1200.82 166.153 1200.82 167.913V182.601H1196.5ZM1211.91 182.601V168.825C1211.91 167.129 1211.38 165.801 1210.33 164.841C1209.3 163.849 1208.02 163.353 1206.49 163.353C1205.43 163.353 1204.47 163.577 1203.61 164.025C1202.78 164.473 1202.1 165.097 1201.59 165.897C1201.08 166.697 1200.82 167.657 1200.82 168.777L1198.38 167.913C1198.47 166.153 1198.94 164.649 1199.77 163.401C1200.63 162.121 1201.74 161.129 1203.08 160.425C1204.42 159.689 1205.9 159.321 1207.5 159.321C1209.16 159.321 1210.65 159.673 1211.96 160.377C1213.27 161.081 1214.31 162.073 1215.08 163.353C1215.88 164.633 1216.28 166.169 1216.28 167.961V182.601H1211.91ZM1239.92 183.081C1237.65 183.081 1235.6 182.569 1233.77 181.545C1231.95 180.489 1230.51 179.065 1229.45 177.273C1228.4 175.481 1227.87 173.449 1227.87 171.177C1227.87 168.937 1228.38 166.921 1229.41 165.129C1230.46 163.337 1231.87 161.929 1233.63 160.905C1235.42 159.849 1237.42 159.321 1239.63 159.321C1241.74 159.321 1243.6 159.801 1245.2 160.761C1246.83 161.721 1248.09 163.049 1248.99 164.745C1249.92 166.441 1250.38 168.361 1250.38 170.505C1250.38 170.825 1250.37 171.177 1250.33 171.561C1250.3 171.913 1250.24 172.329 1250.14 172.809H1230.89V169.209H1247.84L1246.25 170.601C1246.25 169.065 1245.98 167.769 1245.44 166.713C1244.89 165.625 1244.13 164.793 1243.13 164.217C1242.14 163.609 1240.94 163.305 1239.53 163.305C1238.06 163.305 1236.77 163.625 1235.65 164.265C1234.53 164.905 1233.66 165.801 1233.05 166.953C1232.45 168.105 1232.14 169.465 1232.14 171.033C1232.14 172.633 1232.46 174.041 1233.1 175.257C1233.74 176.441 1234.65 177.369 1235.84 178.041C1237.02 178.681 1238.38 179.001 1239.92 179.001C1241.2 179.001 1242.37 178.777 1243.42 178.329C1244.51 177.881 1245.44 177.209 1246.21 176.313L1248.99 179.145C1247.9 180.425 1246.56 181.401 1244.96 182.073C1243.39 182.745 1241.71 183.081 1239.92 183.081ZM1266.09 183.081C1265.19 183.081 1264.44 182.777 1263.83 182.169C1263.25 181.529 1262.97 180.777 1262.97 179.913C1262.97 179.017 1263.25 178.281 1263.83 177.705C1264.44 177.097 1265.19 176.793 1266.09 176.793C1266.98 176.793 1267.72 177.097 1268.29 177.705C1268.9 178.281 1269.21 179.017 1269.21 179.913C1269.21 180.777 1268.9 181.529 1268.29 182.169C1267.72 182.777 1266.98 183.081 1266.09 183.081Z" fill="white"/>
<g opacity="0.15">
<line x1="473.002" y1="166.501" x2="803.999" y2="168.026" stroke="white"/>
<line x1="639.05" y1="1.50238" x2="638.241" y2="332.502" stroke="white"/>
<line x1="472.646" y1="166.648" x2="638.146" y2="1.14761" stroke="white"/>
<line x1="473.354" y1="166.648" x2="638.854" y2="332.148" stroke="white"/>
<line x1="638.855" y1="1.14922" x2="804.355" y2="168.168" stroke="white"/>
<line x1="638.148" y1="332.146" x2="803.648" y2="168.164" stroke="white"/>
<line x1="555.396" y1="249.398" x2="720.896" y2="83.8976" stroke="white"/>
<line x1="556.104" y1="83.8976" x2="721.604" y2="249.398" stroke="white"/>
<line x1="720.893" y1="83.9015" x2="755.055" y2="48.9795" stroke="white"/>
<line x1="555.389" y1="83.8374" x2="522.744" y2="49.6746" stroke="white"/>
<line x1="556.104" y1="249.346" x2="521.941" y2="283.508" stroke="white"/>
<line x1="721.6" y1="249.394" x2="755.762" y2="282.797" stroke="white"/>
<line x1="473.461" y1="166.808" x2="522.048" y2="282.962" stroke="white"/>
<line x1="521.782" y1="282.694" x2="638.694" y2="332.04" stroke="white"/>
<line x1="638.306" y1="332.041" x2="755.218" y2="282.694" stroke="white"/>
<line x1="803.701" y1="168.714" x2="755.873" y2="281.831" stroke="white"/>
<line x1="755.115" y1="49.1368" x2="804.461" y2="167.568" stroke="white"/>
<line x1="638.689" y1="1.03839" x2="755.602" y2="48.8664" stroke="white"/>
<line x1="522.914" y1="48.8672" x2="638.309" y2="1.03926" stroke="white"/>
<line x1="472.54" y1="166.805" x2="522.645" y2="49.1333" stroke="white"/>
<line x1="556.25" y1="84.2512" x2="556.25" y2="248.992" stroke="white"/>
<line x1="555.752" y1="83.7512" x2="721.252" y2="84.5209" stroke="white"/>
<line x1="555.748" y1="249.251" x2="721.248" y2="248.492" stroke="white"/>
<line x1="721.75" y1="84.2512" x2="721.75" y2="248.992" stroke="white"/>
<line x1="555.398" y1="166.646" x2="638.148" y2="84.6552" stroke="white"/>
<line x1="556.1" y1="167.404" x2="638.85" y2="248.635" stroke="white"/>
<line x1="638.855" y1="83.8992" x2="721.605" y2="167.408" stroke="white"/>
<line x1="638.15" y1="248.635" x2="720.9" y2="167.404" stroke="white"/>
<line x1="596.745" y1="125.506" x2="679.495" y2="125.506" stroke="white"/>
<line x1="597.245" y1="126.006" x2="597.245" y2="207.997" stroke="white"/>
<line x1="596.745" y1="207.497" x2="679.495" y2="207.497" stroke="white"/>
<line x1="679.995" y1="126.006" x2="679.995" y2="207.997" stroke="white"/>
<line x1="596.395" y1="166.644" x2="638.15" y2="125.649" stroke="white"/>
<line x1="597.092" y1="167.4" x2="638.847" y2="207.637" stroke="white"/>
<line x1="638.854" y1="125.652" x2="680.608" y2="167.407" stroke="white"/>
<line x1="638.909" y1="207.64" x2="679.904" y2="167.403" stroke="white"/>
<line x1="473.539" y1="165.793" x2="639.039" y2="84.5615" stroke="white"/>
<line x1="639.484" y1="84.5635" x2="804.225" y2="167.314" stroke="white"/>
<line x1="473.222" y1="166.553" x2="638.722" y2="248.544" stroke="white"/>
<line x1="639.038" y1="248.544" x2="803.779" y2="167.312" stroke="white"/>
<line x1="556.062" y1="166.778" x2="638.812" y2="1.27756" stroke="white"/>
<line x1="638.947" y1="1.27755" x2="721.697" y2="166.778" stroke="white"/>
<line x1="556.197" y1="166.778" x2="638.947" y2="332.278" stroke="white"/>
<line x1="638.053" y1="332.277" x2="720.803" y2="167.536" stroke="white"/>
<line x1="556.23" y1="167.142" x2="522.067" y2="283.296" stroke="white"/>
<line x1="521.447" y1="282.675" x2="638.36" y2="248.512" stroke="white"/>
<line x1="721.729" y1="167.618" x2="755.892" y2="283.013" stroke="white"/>
<line x1="638.632" y1="249.269" x2="755.544" y2="281.154" stroke="white"/>
<line x1="639.115" y1="83.7723" x2="755.269" y2="48.8503" stroke="white"/>
<line x1="755.893" y1="49.4677" x2="721.73" y2="167.899" stroke="white"/>
<line x1="523.587" y1="49.1955" x2="556.232" y2="166.867" stroke="white"/>
<line x1="523.253" y1="48.8514" x2="638.648" y2="84.5326" stroke="white"/>
<line x1="523.605" y1="49.3324" x2="522.087" y2="281.64" stroke="white"/>
<line x1="523.105" y1="48.8291" x2="755.413" y2="48.8291" stroke="white"/>
<line x1="755.913" y1="49.3291" x2="755.913" y2="281.636" stroke="white"/>
<line x1="755.416" y1="282.136" x2="522.35" y2="283.655" stroke="white"/>
</g>
<line x1="0.495827" y1="207.101" x2="1276.49" y2="204.098" stroke="url(#paint0_linear_60_241)" stroke-width="5"/>
<defs>
<linearGradient id="paint0_linear_60_241" x1="0.502885" y1="210.101" x2="1276.5" y2="207.098" gradientUnits="userSpaceOnUse">
<stop stop-color="#8F57FF"/>
<stop offset="1" stop-color="#0C0C0C"/>
</linearGradient>
</defs>
</svg>
